<?xml version="1.0" encoding="UTF-8" standalone="no"?>
<svg
   xmlns:dc="http://purl.org/dc/elements/1.1/"
   xmlns:cc="http://creativecommons.org/ns#"
   xmlns:rdf="http://www.w3.org/1999/02/22-rdf-syntax-ns#"
   xmlns:svg="http://www.w3.org/2000/svg"
   xmlns="http://www.w3.org/2000/svg"
   version="1.1"
   id="svg2"
   viewBox="0 0 238.42284 189.58593"
   height="53.505363mm"
   width="67.288223mm">
  <defs
     id="defs4" />
  <metadata
     id="metadata7">
    <rdf:RDF>
      <cc:Work
         rdf:about="">
        <dc:format>image/svg+xml</dc:format>
        <dc:type
           rdf:resource="http://purl.org/dc/dcmitype/StillImage" />
        <dc:title></dc:title>
      </cc:Work>
    </rdf:RDF>
  </metadata>
  <g
     transform="translate(-234.36001,-334.71209)"
     id="layer1">
    <g
       transform="matrix(1.2499999,0,0,1.25,234.36001,334.71307)"
       id="surface6963">
      <path
         style="fill:#006661;fill-opacity:1;fill-rule:nonzero;stroke:none"
         d="m 56.578125,76.394531 c 0,-1.105468 0,-3.667968 -0.347656,-4.601562 -0.449219,-1.175781 -1.984375,-1.175781 -3.09375,-1.175781 l 0,-1.175782 18.378906,0 0,5.347657 -0.910156,0 c -0.617188,-3.800782 -2.957031,-3.933594 -6.007813,-3.933594 l -2.492187,0 c -1.074219,0 -0.898438,-0.105469 -0.898438,1.417969 l 0,7.722656 c 4.367188,0.195312 5.066407,-1.757813 5.28125,-4.371094 l 1.035157,0 c -0.03516,1.558594 -0.07031,3.265625 -0.136719,4.820313 0.06641,1.417968 0.101562,3.113281 0.136719,4.53125 l -1.035157,0 c -0.457031,-3.46875 -2.203125,-3.808594 -5.28125,-3.808594 l 0,5.085937 c 0,1.035157 0,2.898438 0.621094,3.730469 0.898438,1.210938 3.046875,1.277344 4.429688,1.246094 2.867187,-0.05859 5.613281,-0.671875 6.046875,-4.636719 l 0.914062,0 -0.07422,5.6875 -18.585937,0 0,-0.914062 c 0.683594,0 1.519531,-0.585938 1.792969,-1.292969 0.34375,-0.9375 0.226562,-3.378906 0.226562,-4.488281 l 0,-9.191407"
         id="path4139" />
      <path
         style="fill:#006661;fill-opacity:1;fill-rule:nonzero;stroke:none"
         d="m 113.02734,108.02734 c 0,-1.10546 0,-3.66406 -0.34375,-4.60156 C 112.23047,102.25 110.69531,102.25 109.58984,102.25 l 0,-1.17187 18.37891,0 0,5.34375 -0.91016,0 c -0.62109,-3.80079 -2.95703,-3.9336 -6.00781,-3.9336 l -2.48828,0 c -1.07422,0 -0.90234,-0.10547 -0.90234,1.41797 l 0,7.72656 c 4.36718,0.19141 5.0664,-1.75781 5.28125,-4.375 l 1.03515,0 c -0.0352,1.55469 -0.0664,3.26563 -0.13672,4.82422 0.0703,1.41797 0.10157,3.10938 0.13672,4.52735 l -1.03515,0 c -0.46094,-3.46875 -2.20313,-3.80469 -5.28125,-3.80469 l 0,5.08203 c 0,1.03516 0,2.89844 0.62109,3.73047 0.89844,1.21094 3.04688,1.28125 4.42969,1.24609 2.86719,-0.0547 5.61328,-0.67187 6.04687,-4.63672 l 0.91406,0 -0.0742,5.69141 -18.58594,0 0,-0.91406 c 0.67969,0 1.51953,-0.58594 1.79297,-1.29688 0.34375,-0.93359 0.22265,-3.375 0.22265,-4.48437 l 0,-9.19532"
         id="path4141" />
      <path
         style="fill:#006661;fill-opacity:1;fill-rule:nonzero;stroke:none"
         d="m 156.63672,108.02734 c 0,-1.10546 0,-3.66406 -0.34766,-4.60156 C 155.83984,102.25 154.30469,102.25 153.19531,102.25 l 0,-1.17187 18.37891,0 0,5.34375 -0.91016,0 c -0.61719,-3.80079 -2.95703,-3.9336 -6.00781,-3.9336 l -2.49219,0 c -1.07031,0 -0.89844,-0.10547 -0.89844,1.41797 l 0,7.72656 c 4.36719,0.19141 5.06641,-1.75781 5.28516,-4.375 l 1.03125,0 c -0.0312,1.55469 -0.0664,3.26563 -0.13672,4.82422 0.0703,1.41797 0.10547,3.10938 0.13672,4.52735 l -1.03125,0 c -0.46094,-3.46875 -2.20312,-3.80469 -5.28516,-3.80469 l 0,5.08203 c 0,1.03516 0,2.89844 0.625,3.73047 0.89454,1.21094 3.04297,1.28125 4.42579,1.24609 2.87109,-0.0547 5.61328,-0.67187 6.04687,-4.63672 l 0.91406,0 -0.0781,5.69141 -18.58203,0 0,-0.91406 c 0.68359,0 1.51953,-0.58594 1.79297,-1.29688 0.34375,-0.93359 0.22656,-3.375 0.22656,-4.48437 l 0,-9.19532"
         id="path4143" />
      <path
         style="fill:#006661;fill-opacity:1;fill-rule:nonzero;stroke:none"
         d="m 77.503906,76.148438 c 0,-1.105469 0,-3.667969 -0.308593,-4.601563 -0.382813,-1.210937 -1.835938,-1.175781 -2.941407,-1.175781 l 0,-0.984375 c 1.414063,0.03516 3.378907,0.105469 4.832032,0.136719 1.867187,-0.03125 4.210937,-0.101563 6.078125,-0.136719 7.300781,-0.136719 12.601562,4.429687 12.601562,11.9375 0,7.335937 -4.574219,11.140625 -11.703125,10.96875 -2.039062,-0.03516 -4.589844,-0.101563 -6.632812,-0.140625 -1.589844,0.03906 -3.621094,0.105469 -5.175782,0.140625 l 0,-0.914063 c 1.105469,0 2.558594,0 2.941407,-1.175781 0.308593,-0.9375 0.308593,-3.496094 0.308593,-4.605469 z m 4.511719,9.9375 c 0,1.175781 -0.136719,2.835937 0.554688,3.839843 0.796875,1.179688 2.207031,1.199219 3.519531,1.199219 5.34375,0 6.28125,-4.429687 6.28125,-9.246094 0,-6.441406 -1.902344,-11.4375 -8.070313,-11.4375 -0.414062,0 -1.765625,-0.07031 -2.078125,0.238282 -0.207031,0.210937 -0.207031,0.796875 -0.207031,1.078125 l 0,14.328125"
         id="path4145" />
      <path
         style="fill:#006661;fill-opacity:1;fill-rule:nonzero;stroke:none"
         d="m 99.875,76.078125 c 0,-1.105469 0.23828,-3.3125 -0.109375,-4.246094 -0.449219,-1.175781 -2.105469,-1.53125 -3.210937,-1.53125 l 0,-0.914062 c 1.65625,0.03516 3.792972,0.105469 5.453122,0.136719 1.76563,-0.03125 3.73438,-0.101563 5.46485,-0.136719 l 0,0.914062 c -1.10938,0 -2.52735,0.476563 -2.97657,1.652344 -0.34765,0.929688 -0.10937,3.019531 -0.10937,4.125 l 0,9.523438 c 0,1.105468 -0.11719,3.308593 0.22656,4.246093 0.44922,1.175782 2.46094,1.53125 3.57031,1.53125 l 0,0.914063 c -1.625,-0.03516 -4.27343,-0.105469 -5.93359,-0.140625 -1.72656,0.03516 -4.207031,0.105469 -5.933594,0.140625 l 0,-0.914063 c 1.105469,0 2.882813,-0.238281 3.328125,-1.414062 C 99.992188,89.03125 99.875,86.707031 99.875,85.601563 l 0,-9.523438"
         id="path4147" />
      <path
         style="fill:#006661;fill-opacity:1;fill-rule:nonzero;stroke:none"
         d="m 126.35938,69.328125 0.99218,0 0.27735,6.578125 -1.03125,0 c -0.5586,-3.621094 -3.25391,-6.066406 -6.71094,-6.066406 -6.46484,0 -7.82422,6.023437 -7.82422,11.433594 0,4.894531 2.02734,10.320312 8.01172,10.320312 4.39062,0 6.31641,-3.761719 7.05469,-7.613281 l 0.97656,0 0,7.816406 -0.80078,0 -0.83203,-1.882812 c -1.86719,1.476562 -3.32813,2.953125 -7.53125,2.953125 -7.50391,0 -12.26953,-4.996094 -12.26953,-11.59375 0,-8.066407 5.30078,-12.582032 12.58593,-12.582032 2.83203,0 4.16016,0.539063 6.54688,2.023438 l 0.55469,-1.386719"
         id="path4149" />
      <path
         style="fill:#006661;fill-opacity:1;fill-rule:nonzero;stroke:none"
         d="m 133.91406,85.253906 c -0.51953,1.316407 -1.30469,3.28125 -1.30469,4.632813 0,1.265625 1.67188,1.503906 2.6836,1.605469 l 0,0.914062 c -1.28125,-0.03516 -2.76563,-0.105469 -4.04297,-0.136719 -1.21484,0.03125 -2.74219,0.101563 -3.95312,0.136719 l 0,-0.914062 c 1.58593,-0.175782 2.97265,-1.3125 3.43749,-2.457032 0.96875,-2.214843 1.90235,-4.277343 2.8711,-6.492187 l 5.29687,-13.597656 1.76563,0 6.99219,17.460937 c 0.41406,0.898438 1.17578,3.011719 1.79687,3.804688 0.76172,1.003906 1.80078,1.144531 2.97656,1.28125 l 0,0.914062 c -1.625,-0.03516 -3.64453,-0.105469 -5.26953,-0.136719 -1.66015,0.03125 -4.0664,0.101563 -5.72656,0.136719 l 0,-0.914062 c 0.71875,-0.02344 2.66406,-0.570313 2.66406,-1.550782 0,-0.335937 -0.54687,-2.089843 -0.69531,-2.460937 l -1.34766,-3.09375 -7.83593,0 z m 7.8125,-2.09375 L 138.15625,74 l -3.60156,9.160156 7.17187,0"
         id="path4151" />
      <path
         style="fill:#006661;fill-opacity:1;fill-rule:nonzero;stroke:none"
         d="m 154.87109,76.128906 c 0,-1.109375 -0.11718,-3.550781 -0.46484,-4.484375 -0.44922,-1.179687 -1.75,-1.296875 -2.85547,-1.296875 l 0,-0.914062 c 1.65625,0.03516 3.52344,0.105469 5.17969,0.140625 1.76562,-0.03516 3.85156,-0.105469 5.61719,-0.140625 l 0,0.914062 c -1.10938,0 -2.4336,-0.02734 -2.87891,1.148438 -0.35156,0.9375 -0.20703,3.523437 -0.20703,4.632812 l 0,9.765625 c 0,4.429688 0.33984,5.15625 4.73047,5.15625 1.54687,0 2.9414,0.175782 4.32031,-0.628906 1.44922,-0.84375 2.35156,-2.746094 2.60547,-4.324219 l 0.86719,0 -0.3125,6.242188 c -0.58985,-0.03516 -1.21094,-0.06641 -1.79688,-0.136719 -5.95312,0.101563 -12.17578,0.101563 -18.125,0.136719 l 0,-0.914063 c 1.10547,0 2.64063,-0.355468 3.09375,-1.535156 0.34375,-0.929687 0.22656,-3.136719 0.22656,-4.242187 l 0,-9.519532"
         id="path4153" />
      <path
         style="fill:#006661;fill-opacity:1;fill-rule:nonzero;stroke:none"
         d="m 71.269531,107.87109 c 0,-1.10937 -0.117187,-3.55078 -0.464843,-4.48437 -0.449219,-1.17578 -1.75,-1.29297 -2.855469,-1.29297 l 0,-0.91797 c 1.65625,0.0391 3.523437,0.10547 5.183594,0.14063 1.761718,-0.0352 3.847656,-0.10157 5.613281,-0.14063 l 0,0.91797 c -1.109375,0 -2.433594,-0.0273 -2.882813,1.14453 -0.347656,0.9375 -0.203125,3.52344 -0.203125,4.63281 l 0,9.76563 c 0,4.42969 0.339844,5.15625 4.730469,5.15625 1.546875,0 2.9375,0.17969 4.320313,-0.625 1.449218,-0.84375 2.351562,-2.75 2.605468,-4.32813 l 0.867188,0 -0.3125,6.2461 c -0.589844,-0.0391 -1.210938,-0.0703 -1.800781,-0.14063 -5.949219,0.10157 -12.171875,0.10157 -18.121094,0.14063 l 0,-0.91797 c 1.105469,0 2.644531,-0.35547 3.09375,-1.52734 0.34375,-0.9375 0.226562,-3.14454 0.226562,-4.25 l 0,-9.51954"
         id="path4155" />
      <path
         style="fill:#006661;fill-opacity:1;fill-rule:nonzero;stroke:none"
         d="m 92.914063,107.87109 c 0,-1.10937 -0.117188,-3.55078 -0.464844,-4.48437 -0.449219,-1.17578 -1.75,-1.29297 -2.855469,-1.29297 l 0,-0.91797 c 1.660156,0.0391 3.523438,0.10547 5.183594,0.14063 1.765625,-0.0352 3.851562,-0.10157 5.617186,-0.14063 l 0,0.91797 c -1.109374,0 -2.433592,-0.0273 -2.886717,1.14453 -0.347657,0.9375 -0.199219,3.52344 -0.199219,4.63281 l 0,9.76563 c 0,4.42969 0.335937,5.15625 4.730466,5.15625 1.54297,0 2.9375,0.17969 4.32032,-0.625 1.44921,-0.84375 2.35156,-2.75 2.60546,-4.32813 l 0.86329,0 -0.3125,6.2461 c -0.58594,-0.0391 -1.21094,-0.0703 -1.79688,-0.14063 -5.95312,0.10157 -12.175781,0.10157 -18.125,0.14063 l 0,-0.91797 c 1.105469,0 2.644531,-0.35547 3.09375,-1.52734 0.34375,-0.9375 0.226563,-3.14454 0.226563,-4.25 l 0,-9.51954"
         id="path4157" />
      <path
         style="fill:#006661;fill-opacity:1;fill-rule:nonzero;stroke:none"
         d="m 43.207031,112.94922 c 0,-7.65625 6.191407,-12.29297 13.171875,-12.29297 6.746094,0 12.65625,5.17188 12.65625,12.05078 0,7.09375 -5.925781,12.125 -12.910156,12.125 -6.914062,0 -12.917969,-4.51562 -12.917969,-11.88281 m 5.273438,0 c 0,5.01953 1.972656,10.82812 7.96875,10.82812 5.609375,0 7.078125,-6.43359 7.078125,-10.93359 0,-4.85937 -1.28125,-11.01953 -7.285156,-11.01953 -5.21875,0 -7.761719,4.78906 -7.761719,11.125"
         id="path4159" />
      <path
         style="fill:#006661;fill-opacity:1;fill-rule:nonzero;stroke:none"
         d="m 150.73047,107.73438 -1.08203,0 c -0.82422,-4.41797 -3.4336,-6.20313 -6.78125,-6.20313 -6.14063,0 -7.72266,6.12891 -7.72266,11.45703 0,4.50391 1.64844,10.27735 7.17578,10.27735 3.46094,0 5.42188,-1.625 5.42188,-5.19141 0,-2.31641 -0.86328,-2.76563 -2.97266,-2.9375 l 0,-0.91797 10.01172,0 0,0.91797 c -1.87109,-0.0391 -2.38281,0.89844 -2.38281,2.625 l 0,3.91016 c -2.52735,0 -3.08985,0.39062 -5.23438,1.5664 -1.76562,0.90235 -3.46094,1.31641 -5.43359,1.31641 -7.04688,0 -11.86328,-4.45313 -11.86328,-11.63281 0,-7.41797 5.11718,-12.66016 12.34765,-12.66016 2.5586,0 4.88672,0.50391 6.96094,2.0625 l 0.72656,-1.44141 0.97266,0 -0.14453,6.85157"
         id="path4161" />
      <path
         style="fill:#006661;fill-opacity:1;fill-rule:nonzero;stroke:none"
         d="m 0,141.92187 c 0,-6.20703 5.164063,-9.78125 10.515625,-9.78125 5.347656,0 10.40625,4.03907 10.40625,9.58594 0,6.125 -5.027344,9.83594 -10.519531,9.83594 C 4.941406,151.5625 0,147.55078 0,141.92187 m 4.328125,0 c 0,4.17579 1.613281,8.76563 6.242188,8.76563 4.765625,0 5.902343,-5.03516 5.902343,-8.85156 0,-4.08985 -1.445312,-8.82032 -6.070312,-8.82032 -4.84375,0 -6.074219,5.28516 -6.074219,8.90625"
         id="path4163" />
      <path
         style="fill:#006661;fill-opacity:1;fill-rule:nonzero;stroke:none"
         d="m 108.01563,141.92187 c 0,-6.20703 5.16406,-9.78125 10.51171,-9.78125 5.34766,0 10.41016,4.03907 10.41016,9.58594 0,6.125 -5.03125,9.83594 -10.51953,9.83594 -5.46484,0 -10.40234,-4.01172 -10.40234,-9.64063 m 4.32812,0 c 0,4.17579 1.60938,8.76563 6.24219,8.76563 4.76172,0 5.90234,-5.03516 5.90234,-8.85156 0,-4.08985 -1.44922,-8.82032 -6.07031,-8.82032 -4.84766,0 -6.07422,5.28516 -6.07422,8.90625"
         id="path4165" />
      <path
         style="fill:#006661;fill-opacity:1;fill-rule:nonzero;stroke:none"
         d="m 34.996094,137.02344 -0.644531,0 c -0.335938,-1.20313 -0.613282,-2.37891 -1.875,-2.91407 -1.203125,-0.53515 -2.445313,-0.5039 -3.789063,-0.5039 -2.238281,0 -2.15625,-0.19531 -2.210937,1.57031 l 0,6.03516 c 2.710937,0.11718 3.742187,-0.53125 4.324218,-3.15235 l 0.882813,0 c -0.02734,1.26172 -0.05469,2.55078 -0.109375,3.8086 0.05469,1.14843 0.08203,2.32422 0.109375,3.47265 l -0.882813,0 C 30.378906,142.15234 29.5,142.34375 26.476563,142.34375 l 0,3.41016 c 0,0.86718 -0.121094,2.58593 0.164062,3.33984 0.417969,1.12109 1.789063,1.25391 2.769531,1.30859 l 0,0.76172 c -1.429687,-0.0273 -3.121093,-0.082 -4.550781,-0.10937 -1.425781,0.0273 -3.183594,0.082 -4.664062,0.10937 l 0,-0.76172 c 0.894531,0 2.160156,-0.12109 2.523437,-1.07031 0.28125,-0.75781 0.160156,-2.71094 0.160156,-3.60547 l 0,-7.66015 c 0,-0.89844 0.121094,-2.85157 -0.160156,-3.60547 -0.363281,-0.95313 -1.628906,-1.07422 -2.523437,-1.07422 l 0,-0.75781 c 1.703125,0.0273 3.710937,0.082 5.367187,0.10937 2.996094,-0.0273 5.992188,-0.082 8.988281,-0.10937 l 0.445313,4.39453"
         id="path4167" />
      <path
         style="fill:#006661;fill-opacity:1;fill-rule:nonzero;stroke:none"
         d="m 53.492188,138.08203 -2.027344,6.89453 c -0.753906,2.23828 -1.539063,4.45313 -2.296875,6.69141 l -1.191406,0 -4.894532,-14.94531 c -0.226562,-0.64454 -0.5,-2.01172 -0.921875,-2.48829 -0.472656,-0.64062 -1.085937,-0.78906 -1.894531,-0.84375 l 0,-0.76562 c 1.34375,0.0312 2.6875,0.0859 4.027344,0.11328 1.375,-0.0273 3.011719,-0.082 4.386719,-0.11328 l 0,0.76562 c -0.898438,0.082 -2.402344,0.082 -2.402344,1.3711 0,0.64453 0.757812,2.71484 0.957031,3.41797 l 2.589844,8.14062 4.210937,-13.69531 1.25,0 4.46875,13.20312 1.609375,-4.73046 c 0.367188,-1.23047 1.484375,-4.73829 1.484375,-5.83204 0,-1.73828 -0.769531,-1.73828 -2.171875,-1.875 l 0,-0.76562 c 1.007813,0.0312 2.015625,0.0859 3.027344,0.11328 0.976563,-0.0273 1.929688,-0.082 2.910156,-0.11328 l 0,0.76562 c -2.070312,-0.0586 -2.460937,2.125 -2.910156,3.69532 l -4.382812,14.58203 -1.457032,0 -4.371093,-13.58594"
         id="path4169" />
      <path
         style="fill:#006661;fill-opacity:1;fill-rule:nonzero;stroke:none"
         d="m 69.0625,138.06641 c 0,-0.89844 0,-2.96875 -0.277344,-3.72657 -0.367187,-0.95312 -1.515625,-0.95312 -2.410156,-0.95312 l 0,-0.76172 c 1.34375,0.0273 3.042969,0.0859 4.390625,0.11328 1.425781,-0.0273 2.945313,-0.0859 4.34375,-0.11328 l 0,0.76172 c -0.894531,0 -2.042969,0.12109 -2.40625,1.07422 -0.28125,0.75781 -0.04297,2.70703 -0.04297,3.60547 l 0,7.66015 c 0,0.89453 -0.121093,2.73047 0.160157,3.48828 0.363281,0.94922 1.628906,1.1875 2.527343,1.1875 l 0,0.76563 c -1.316406,-0.0312 -3.046875,-0.0859 -4.386718,-0.11328 -1.402344,0.0273 -3.183594,0.082 -4.585938,0.11328 l 0,-0.76563 c 0.894531,0 2.164063,-0.23828 2.527344,-1.1875 0.277344,-0.75781 0.160156,-2.59375 0.160156,-3.48828 l 0,-7.66015"
         id="path4171" />
      <path
         style="fill:#006661;fill-opacity:1;fill-rule:nonzero;stroke:none"
         d="m 76.097656,145.50781 0.882813,0 c 0.558594,2.82813 2.070312,5.08985 5.292969,5.08985 2.183593,0 3.765625,-1.11329 3.765625,-3.37891 0,-2.34766 -2.515625,-3.44141 -4.257813,-4.13672 -2.546875,-0.97656 -5.382812,-2.55859 -5.382812,-5.75 0,-3.19141 2.851562,-5.16016 5.902343,-5.16016 1.539063,0 2.847657,0.41407 4.109375,1.3125 l 0.644532,-1.09375 0.542968,0 0.261719,5.19922 -0.765625,0 c -0.644531,-2.32422 -1.839844,-4.42578 -4.554687,-4.42578 -1.792969,0 -3.160157,1.03125 -3.160157,2.85156 0,2.21094 2.140625,2.54297 3.84375,3.33985 3.675782,1.72265 6.039063,2.83594 6.039063,6.6875 0,3.4375 -2.777344,5.42969 -7.042969,5.42969 -1.90625,0 -3.273437,-0.32032 -4.785156,-1.44141 l -0.554688,0.9375 -0.78125,0 0,-5.46094"
         id="path4173" />
      <path
         style="fill:#006661;fill-opacity:1;fill-rule:nonzero;stroke:none"
         d="m 163.53125,138.06641 c 0,-0.89844 0,-2.96875 -0.27734,-3.72657 -0.36719,-0.95312 -1.51563,-0.95312 -2.41016,-0.95312 l 0,-0.76172 c 1.34375,0.0273 3.04297,0.0859 4.38672,0.11328 1.42578,-0.0273 2.94922,-0.0859 4.34765,-0.11328 l 0,0.76172 c -0.89843,0 -2.04687,0.12109 -2.40625,1.07422 -0.28125,0.75781 -0.043,2.70703 -0.043,3.60547 l 0,7.66015 c 0,0.89453 -0.1211,2.73047 0.15625,3.48828 0.36718,0.94922 1.63281,1.1875 2.52734,1.1875 l 0,0.76563 c -1.3125,-0.0312 -3.04297,-0.0859 -4.38672,-0.11328 -1.39844,0.0273 -3.18359,0.082 -4.58203,0.11328 l 0,-0.76563 c 0.89453,0 2.16406,-0.23828 2.52344,-1.1875 0.28125,-0.75781 0.16406,-2.59375 0.16406,-3.48828 l 0,-7.66015"
         id="path4175" />
      <path
         style="fill:#006661;fill-opacity:1;fill-rule:nonzero;stroke:none"
         d="m 147.75781,145.50781 0.88281,0 c 0.55469,2.82813 2.07032,5.08985 5.29297,5.08985 2.17969,0 3.76563,-1.11329 3.76563,-3.37891 0,-2.34766 -2.51563,-3.44141 -4.26172,-4.13672 -2.54297,-0.97656 -5.37891,-2.55859 -5.37891,-5.75 0,-3.19141 2.84766,-5.16016 5.90235,-5.16016 1.53515,0 2.84765,0.41407 4.10547,1.3125 l 0.64453,-1.09375 0.54687,0 0.25781,5.19922 -0.76171,0 c -0.64454,-2.32422 -1.84375,-4.42578 -4.5586,-4.42578 -1.79297,0 -3.15625,1.03125 -3.15625,2.85156 0,2.21094 2.14063,2.54297 3.84375,3.33985 3.67188,1.72265 6.03906,2.83594 6.03906,6.6875 0,3.4375 -2.77734,5.42969 -7.04687,5.42969 -1.90625,0 -3.26953,-0.32032 -4.78125,-1.44141 l -0.55469,0.9375 -0.78125,0 0,-5.46094"
         id="path4177" />
      <path
         style="fill:#006661;fill-opacity:1;fill-rule:nonzero;stroke:none"
         d="m 105.69922,132.59375 0.65625,0 0.22656,5.39453 -0.64453,0 c -1.16406,-3.00781 -1.73828,-4.9375 -5.78906,-4.9375 -4.738284,0 -5.92969,4.89453 -5.92969,9.04297 0,3.625 1.550781,8.37891 5.98438,8.37891 3.92187,0 5.23437,-2.80079 6.07031,-6.16016 l 0.74219,0 0,6.25391 -0.60157,0 -0.67187,-1.3125 c -1.875,1.48437 -3.66016,2.21875 -6.070315,2.21875 -5.683594,0 -9.785156,-3.66797 -9.785156,-9.37891 0,-6.07422 3.96875,-10.03906 10.039062,-10.03906 2.296879,0 3.273439,0.41015 5.207029,1.61718 l 0.56641,-1.07812"
         id="path4179" />
      <path
         style="fill:#006661;fill-opacity:1;fill-rule:nonzero;stroke:none"
         d="m 130.47656,135.07031 c -0.86719,-1.23437 -1.42187,-1.65625 -2.92968,-1.68359 l 0,-0.76172 c 0.89062,0.0273 1.99609,0.0859 2.89453,0.11328 0.73046,-0.0273 1.71875,-0.0859 2.5664,-0.11328 l 11.39844,13.71094 0,-6.95313 c 0,-1.20703 0,-3.16406 -0.25,-4.3125 -0.33984,-1.5664 -0.85547,-1.45703 -2.25781,-1.68359 l 0,-0.76172 c 1.03906,0.0273 2.04297,0.0859 3.08203,0.11328 0.98047,-0.0273 1.92969,-0.0859 2.96875,-0.11328 l 0,0.76172 c -1.03906,0.11719 -1.76172,0.0273 -2.12891,1.23437 -0.28125,0.89453 -0.33594,3.78125 -0.33594,4.90235 l 0,11.94922 -1.3125,0 c -0.61718,-0.75782 -1.47265,-1.77735 -2.08593,-2.5625 l -10.53125,-12.67969 0,8.93359 c 0,1.03906 -0.0469,2.86719 0.30078,3.85156 0.39844,1.125 1.51953,1.27735 2.55469,1.38672 l 0,0.76563 c -1.0625,-0.0312 -2.27344,-0.0859 -3.33985,-0.11328 -1.03515,0.0273 -2.1914,0.082 -3.22656,0.11328 l 0,-0.76563 c 1.09375,-0.10937 2.36328,-0.38281 2.52734,-1.60937 0.14844,-1.09375 0.10547,-2.53516 0.10547,-3.62891 l 0,-10.09375"
         id="path4181" />
      <path
         style="fill:#006661;fill-opacity:1;fill-rule:nonzero;stroke:none"
         d="m 173.26953,135.07031 c -0.86719,-1.23437 -1.42187,-1.65625 -2.93359,-1.68359 l 0,-0.76172 c 0.89453,0.0273 2,0.0859 2.89843,0.11328 0.72657,-0.0273 1.71875,-0.0859 2.56641,-0.11328 l 11.39844,13.71094 0,-6.95313 c 0,-1.20703 0,-3.16406 -0.25,-4.3125 -0.33985,-1.5664 -0.85547,-1.45703 -2.25781,-1.68359 l 0,-0.76172 c 1.03515,0.0273 2.04687,0.0859 3.08203,0.11328 0.98047,-0.0273 1.92968,-0.0859 2.96484,-0.11328 l 0,0.76172 c -1.03516,0.11719 -1.75781,0.0273 -2.125,1.23437 -0.28125,0.89453 -0.33594,3.78125 -0.33594,4.90235 l 0,11.94922 -1.3164,0 c -0.61328,-0.75782 -1.46875,-1.77735 -2.08203,-2.5625 l -10.53125,-12.67969 0,8.93359 c 0,1.03906 -0.0469,2.86719 0.30078,3.85156 0.39843,1.125 1.51562,1.27735 2.55468,1.38672 l 0,0.76563 c -1.0664,-0.0312 -2.27343,-0.0859 -3.33984,-0.11328 -1.03516,0.0273 -2.19141,0.082 -3.22656,0.11328 l 0,-0.76563 c 1.08984,-0.10937 2.36328,-0.38281 2.52734,-1.60937 0.14844,-1.09375 0.10547,-2.53516 0.10547,-3.62891 l 0,-10.09375"
         id="path4183" />
      <path
         style="fill:#006661;fill-opacity:1;fill-rule:nonzero;stroke:none"
         d="m 49.746094,86.890625 c 0,3.015625 -0.246094,4.136719 3.484375,4.449219 l 0,1.183594 c -2.140625,-0.04297 -4.160156,-0.121094 -6.179688,-0.164063 -2.058593,0.04297 -4.039062,0.121094 -6.097656,0.164063 l 0,-1.183594 c 3.183594,-0.265625 3.601563,-1.148438 3.601563,-4.449219 l 0,-16.179687 -0.08203,0 -4.457031,10.1875 c -1.730469,3.953125 -3.300781,7.671875 -5.03125,11.625 l -1.003906,0 -9.535156,-21.695313 -0.08203,0 0,15.445313 c 0,2.984375 0.597657,4.914062 3.714844,5.066406 l 0,1.183594 c -1.519531,-0.04297 -3.046875,-0.121094 -4.570312,-0.164063 -1.441407,0.04297 -2.882813,0.121094 -4.328125,0.164063 l 0,-1.183594 c 3.132812,0 3.710937,-1.894531 3.710937,-3.746094 l 0,-17.074219 c 0,-1.070312 -0.164062,-2.144531 -0.371094,-2.675781 -0.539062,-1.402344 -2.460937,-1.402344 -3.78125,-1.402344 l 0,-1.183593 c 1.402344,0.07813 3.351563,0.121093 4.753907,0.164062 1.277343,-0.04297 2.867187,-0.08594 4.144531,-0.164062 l 8.589844,20.023437 8.578125,-20.023437 c 1.277343,0.07813 3.070312,0.121093 4.34375,0.164062 1.320312,-0.04297 3.113281,-0.08594 4.554687,-0.164062 l 0,1.105468 c -1.320312,0 -2.925781,0.160157 -3.546875,1.519532 -0.410156,0.90625 -0.410156,2.929687 -0.410156,4.453125 l 0,14.554687"
         id="path4185" />
      <path
         style="fill:#006661;fill-opacity:1;fill-rule:nonzero;stroke:none"
         d="m 40.089844,96.691406 1.089844,0 0.328125,8.230474 -1.066407,0 c -0.824218,-5.144536 -4.535156,-7.414067 -8.570312,-7.425786 -7.785156,-0.03125 -9.007813,8.945316 -9.007813,13.585936 0,6.02735 2.484375,12.61719 9.445313,12.61719 5.484375,0 7.574219,-4.48438 8.746094,-9.18359 l 1.101562,0 0,9.3789 -0.890625,0 -0.992187,-2.10156 c -2.480469,1.96094 -5.910157,3.44531 -8.984375,3.44531 -7.976563,0 -14.757813,-4.48828 -14.757813,-14.15625 0,-9.35156 6.429688,-15.007811 15.011719,-15.007811 3.089844,0 5.4375,1.027344 7.886719,2.550781 l 0.660156,-1.933594"
         id="path4187" />
      <path
         style="fill:#006661;fill-opacity:1;fill-rule:nonzero;stroke:none"
         d="m 93.191406,42.679688 c -0.582031,-0.0078 -1.132812,0.457031 -1.132812,0.980468 0,0.53125 0.304687,0.777344 0.707031,0.953125 0.449219,0.203125 1.410156,0.640625 2.445313,1.105469 -0.01563,-0.675781 -0.03125,-1.402344 -0.04687,-2.164062 -0.863282,-0.453125 -1.613282,-0.871094 -1.972657,-0.875"
         id="path4189" />
      <path
         style="fill:#006661;fill-opacity:1;fill-rule:nonzero;stroke:none"
         d="m 96.316406,41.804688 c 0.652344,0.316406 1.214844,0.542968 1.644532,0.542968 0.632812,0 1.109375,-0.292968 1.136718,-0.902343 0.02734,-0.578125 -0.234375,-1.019532 -1.011718,-1.367188 l -1.714844,-0.71875 c -0.01953,0.847656 -0.03906,1.65625 -0.05469,2.445313"
         id="path4191" />
      <path
         style="fill:#006661;fill-opacity:1;fill-rule:nonzero;stroke:none"
         d="m 100.34375,16.421875 c -0.0117,-0.953125 -0.15234,-1.417969 -2.3125,-2.273437 -0.277344,-0.109375 -0.648437,-0.265625 -1.089844,-0.457032 -0.02344,1.070313 -0.05078,2.28125 -0.07813,3.582032 0.582032,0.324218 1.1875,0.558593 1.902344,0.558593 0.734375,0 1.58984,-0.390625 1.57813,-1.410156"
         id="path4193" />
      <path
         style="fill:#006661;fill-opacity:1;fill-rule:nonzero;stroke:none"
         d="m 93.175781,19.105469 c -0.882812,0 -1.453125,0.277344 -1.453125,1.394531 0,0.691406 0.140625,1.300781 1.769532,2.007813 0.371093,0.160156 0.789062,0.339843 1.214843,0.523437 -0.02344,-1.171875 -0.05078,-2.308594 -0.07422,-3.402344 -0.484375,-0.289062 -0.976563,-0.523437 -1.457032,-0.523437"
         id="path4195" />
      <path
         style="fill:#006661;fill-opacity:1;fill-rule:nonzero;stroke:none"
         d="m 96.566406,30.464844 c 0.578125,0.3125 1.167969,0.550781 1.6875,0.550781 0.816407,0 1.425782,-0.453125 1.425782,-1.285156 0,-1.007813 -0.722657,-1.382813 -1.523438,-1.703125 -0.34375,-0.136719 -0.871094,-0.378906 -1.519531,-0.671875 -0.02344,1.03125 -0.04687,2.070312 -0.07031,3.109375"
         id="path4197" />
      <path
         style="fill:#006661;fill-opacity:1;fill-rule:nonzero;stroke:none"
         d="m 92.914063,32.222656 c -0.695313,-0.0078 -1.132813,0.441407 -1.132813,1.078125 0,0.648438 0.429688,0.964844 1.089844,1.300782 l 2.113281,0.929687 c -0.01953,-0.886719 -0.03906,-1.792969 -0.05859,-2.703125 -0.570312,-0.296875 -1.28125,-0.601562 -2.011718,-0.605469"
         id="path4199" />
      <path
         style="fill:#006661;fill-opacity:1;fill-rule:nonzero;stroke:none"
         d="m 136.45703,45.574219 -0.20312,0 c -5.96875,-0.570313 -8.72266,-1.71875 -14.08594,-2.960938 C 117.5,41.527344 111.45703,41.183594 107.63672,42.136719 l -0.39063,0.05859 c -0.54296,-0.0039 -0.98046,-0.441407 -0.98046,-0.988282 0,-0.542968 0.4375,-0.980468 0.98828,-0.980468 l 0.42578,-0.05469 c 2.77734,-0.660156 8.85937,-0.871094 14.67969,0.476563 3.42578,0.792968 7.55859,2.277343 13.82421,2.917968 l 0.27735,0.03906 c 0.54297,0 0.98047,0.445312 0.98047,0.984375 0,0.542969 -0.44141,0.984375 -0.98438,0.984375 m -29.45312,-12.320313 0.42968,-0.05469 c 3.14844,-0.398438 8.45313,-0.378906 14.19532,1.070312 3.41406,0.859375 7.26562,2.238282 12.9375,2.878907 l 0.27734,0.03906 c 0.54687,0.0039 0.98047,0.441406 0.98047,0.984375 -0.004,0.546875 -0.44141,0.980469 -0.98438,0.980469 l -0.20312,0 c -5.08203,-0.605469 -8.07422,-1.535156 -13.37891,-2.992188 -4.48828,-1.234375 -11.19922,-1.449218 -13.83203,-0.921875 L 107,35.222656 c -0.54297,-0.0039 -0.98437,-0.445312 -0.98047,-0.984375 0,-0.546875 0.44141,-0.984375 0.98438,-0.984375 m -0.2461,-6.898437 0.42578,-0.05078 c 3.08204,-0.441407 8.375,0.128906 14.08985,1.695312 3.26172,0.894531 7.375,2.164063 11.59765,2.730469 l 0.27735,0.03906 c 0.54687,0 0.98437,0.441407 0.98437,0.984375 -0.004,0.546875 -0.44531,0.980469 -0.98437,0.976563 l -0.20703,0 c -3.44532,-0.449219 -7.71094,-1.460938 -12.96875,-3.066406 -4.3125,-1.3125 -10.19532,-1.851563 -12.82813,-1.320313 l -0.39062,-0.01953 c -0.54688,0 -0.98438,-0.441406 -0.98438,-0.984375 0.004,-0.542969 0.44531,-0.984375 0.98828,-0.984375 m -0.20703,-7.007813 0.39063,0.04297 c 2.74218,-0.167969 7.41015,0.363281 13.07812,2.078125 3.17969,0.964844 7.04297,2.242188 11.26953,2.808594 l 0.27735,0.03516 c 0.54687,0 0.98437,0.445313 0.98437,0.984375 0,0.546875 -0.44141,0.984375 -0.98828,0.984375 l -0.20313,-0.0039 c -3.0039,-0.375 -6.69921,-1.207031 -11.59765,-2.878906 C 115.5,21.945313 109.34375,21.078125 106.86328,21.351563 l -0.3164,-0.03906 c -0.54297,0 -0.98438,-0.4375 -0.98438,-0.984375 0,-0.542969 0.44141,-0.980469 0.98828,-0.980469 m -0.17578,-6.914062 0.39063,0.03906 c 2,-0.183593 7.94531,0.992188 12.82421,2.730469 6.37891,2.277344 9.85938,2.539063 10.15625,2.617188 l 0.27735,0.03906 c 0.54687,0 0.98047,0.441406 0.98047,0.980469 0,0.546875 -0.4375,0.984375 -0.98438,0.984375 l -0.20703,0 c -0.30078,-0.03906 -4.98437,-0.710938 -9.85156,-2.46875 -4.85938,-1.75 -9.52735,-2.761719 -13.27344,-2.917969 l -0.31641,-0.03906 c -0.54296,0 -0.98046,-0.441407 -0.98046,-0.984375 0.004,-0.542969 0.44531,-0.980469 0.98437,-0.980469 m -0.24609,-6.972656 0.39453,0.035156 c 1.66797,0.078125 6.74219,1.167969 11.55859,3.066406 4.81641,1.902344 9.67188,2.800781 9.97266,2.878906 l 0.27343,0.03516 c 0.54688,0 0.98438,0.441406 0.98438,0.988281 0,0.539062 -0.44141,0.976562 -0.98828,0.976562 l -0.20313,0 c -0.30468,-0.03906 -5.07421,-0.863281 -9.89453,-2.761718 -4.8164,-1.902344 -9.78515,-3.027344 -11.78515,-3.214844 l -0.3125,-0.035156 c -0.54688,0 -0.98438,-0.445313 -0.98438,-0.988282 0.004,-0.542968 0.44531,-0.980468 0.98438,-0.980468 m -5.86719,20.070312 c 1.67578,0.804688 2.5625,1.523438 2.60937,4.046875 0.0469,2.507813 -2.28906,4.476563 -4.410152,4.472656 -0.710938,-0.0039 -1.441407,-0.222656 -1.972657,-0.433593 -0.01953,0.863281 -0.04297,1.71875 -0.0625,2.5625 l 3.21875,1.429687 c 1.546879,0.734375 2.210939,1.941406 2.222659,3.535156 0.0117,2.019532 -1.941409,3.546875 -3.593752,3.546875 -0.597657,-0.0039 -1.320313,-0.261718 -2.039063,-0.59375 -0.01953,0.734375 -0.03516,1.429688 -0.05078,2.078125 1.175781,0.535157 2.273437,1.03125 2.65625,1.203125 0.820312,0.359375 1.476565,1.230469 1.066406,1.914063 -0.367187,0.632812 -1.25,0.621094 -2.058594,0.28125 C 97.527344,49.4375 96.875,49.148438 96.121094,48.808594 c -0.03906,1.546875 -0.05859,2.496094 -0.05859,2.5625 0,0.441406 -0.167969,0.550781 -0.390625,0.550781 -0.222656,0 -0.390625,-0.109375 -0.390625,-0.554687 0,-0.07031 -0.01953,-1.164063 -0.05469,-2.960938 C 94.027345,47.863281 92.769532,47.289063 92.183595,47.003906 90.38672,46.125 89.88672,44.78125 89.894532,43.953125 c 0.01953,-1.933594 1.390625,-3.222656 3.199219,-3.21875 0.761719,0 1.375,0.1875 1.992188,0.46875 -0.01563,-0.769531 -0.03125,-1.574219 -0.04687,-2.390625 l -2.933594,-1.234375 c -1.9375,-0.792969 -2.84375,-2.257812 -2.871094,-4.042969 -0.03516,-2.976562 2.554688,-4.089843 4.074219,-4.085937 0.671875,0 1.152344,0.05078 1.539062,0.148437 -0.01563,-1.019531 -0.03906,-2.035156 -0.0625,-3.046875 -0.328125,-0.136718 -0.667968,-0.273437 -1.023437,-0.410156 -4.066406,-1.558594 -5.332031,-3.402344 -5.34375,-5.476562 -0.01563,-3.527344 2.722656,-4.808594 4.824219,-4.800782 0.503906,0 0.929687,0.05859 1.332031,0.164063 -0.02734,-1.273438 -0.04687,-2.441406 -0.07031,-3.445313 C 93.589853,12.167969 92.58204,11.699219 91.535165,11.210938 89.339844,10.1875 87.574219,8.488281 87.542969,6.566406 87.527344,5.089844 88.15625,4.226563 89.050781,3.351563 c 0.894532,-0.867188 2.175782,-1.066407 2.835938,-0.425782 0.65625,0.636719 0.464844,1.769532 0.04687,2.226563 -0.421875,0.460937 -0.882813,0.601562 -0.886719,1.519531 -0.0039,0.910156 0.867188,1.351563 1.886719,1.804688 0.492187,0.21875 0.996094,0.4375 1.5,0.660156 -0.0078,-0.347656 -0.01172,-0.546875 -0.01172,-0.546875 0,0 -0.332031,-0.390625 -0.550781,-0.554688 -0.226563,-0.167968 -0.167969,-0.5 -0.167969,-0.5 l 0,-1.113281 c 0.0039,-0.445312 0.335938,-0.613281 0.667969,-0.441406 0.335937,0.164062 1.28125,0.667969 1.28125,0.667969 l 0.21875,0 c 0,0 0.949219,-0.5 1.28125,-0.664063 0.335937,-0.171875 0.667969,0 0.667969,0.445313 l -0.0039,1.113281 c 0,0 0.05469,0.332031 -0.164062,0.496094 -0.222656,0.167968 -0.558594,0.554687 -0.558594,0.554687 0,0 -0.01563,0.621094 -0.03906,1.679688 1.289062,0.558593 2.386718,1.035156 3.031249,1.316406 2.1289,0.925781 3.8125,2.285156 3.85156,5.082031 0.0195,1.757813 -1.6875,4.414063 -4.457028,4.421875 -0.929688,0.0039 -1.851563,-0.02734 -2.6875,-0.273437 -0.01953,1.007812 -0.04687,2.035156 -0.07031,3.09375 1.28125,0.566406 2.566407,1.148437 3.539068,1.617187 M 85.808594,7.386719 85.488281,7.421875 c -2,0.183594 -6.976562,1.285156 -11.796875,3.167969 -4.828125,1.882812 -9.601562,2.6875 -9.90625,2.722656 l -0.203125,0 c -0.546875,-0.0039 -0.980468,-0.4375 -0.980468,-0.984375 0,-0.542969 0.441406,-0.980469 0.980468,-0.980469 l 0.28125,-0.03516 c 0.296875,-0.07422 5.15625,-0.957031 9.980469,-2.835937 C 78.667969,6.59375 83.75,5.527344 85.417969,5.457031 l 0.390625,-0.035156 c 0.542969,0 0.980469,0.441406 0.980469,0.984375 0,0.539063 -0.441407,0.984375 -0.980469,0.980469 m -0.277344,6.96875 -0.316406,0.03906 c -3.746094,0.140625 -8.417969,1.132813 -13.28125,2.867188 -4.875,1.734375 -9.5625,2.390625 -9.867188,2.425781 l -0.203125,0 c -0.542968,0 -0.984375,-0.441406 -0.984375,-0.984375 0.0039,-0.542969 0.445313,-0.980469 0.988282,-0.980469 l 0.277343,-0.03906 c 0.300782,-0.07031 3.78125,-0.324219 10.167969,-2.574219 4.878906,-1.71875 10.832031,-2.871094 12.832031,-2.679687 l 0.390625,-0.03516 c 0.542969,0 0.980469,0.441407 0.980469,0.984375 0,0.539063 -0.441406,0.980469 -0.984375,0.976563 m -0.199219,6.914062 -0.3125,0.03906 c -2.488281,-0.28515 -8.644531,0.5586 -12.910156,1.9961 -4.910156,1.652343 -8.609375,2.46875 -11.613281,2.835937 l -0.203125,0 C 59.75,26.136719 59.3125,25.695313 59.3125,25.152344 c 0,-0.542969 0.441406,-0.980469 0.984375,-0.980469 l 0.277344,-0.03906 C 64.800781,23.585938 68.671875,22.324219 71.851563,21.375 77.53125,19.679688 82.203125,19.171875 84.949219,19.34375 l 0.386719,-0.03906 c 0.542968,0.0039 0.980468,0.445312 0.980468,0.984375 0,0.546875 -0.4375,0.980468 -0.984375,0.980468 m -0.238281,7.011719 -0.386719,0.01953 c -2.628906,-0.542968 -8.523437,-0.02734 -12.832031,1.269532 -5.273437,1.582031 -9.535156,2.574218 -12.984375,3.015625 l -0.207031,0 c -0.539063,0 -0.976563,-0.441407 -0.976563,-0.984375 0,-0.542969 0.441407,-0.984375 0.980469,-0.980469 l 0.28125,-0.03516 c 4.226563,-0.550782 8.347656,-1.804688 11.609375,-2.6875 5.71875,-1.542969 11.019531,-2.089844 14.09375,-1.640625 l 0.425781,0.05859 c 0.546875,0 0.984375,0.441407 0.984375,0.984375 -0.0039,0.542969 -0.445312,0.980469 -0.988281,0.980469 m -0.273437,6.898438 -0.425782,0.01563 C 81.765625,34.652344 75.054688,34.84375 70.5625,36.054688 65.25,37.492188 62.25,38.414063 57.171875,38.996094 l -0.203125,0 c -0.546875,0 -0.984375,-0.4375 -0.984375,-0.984375 0,-0.542969 0.441406,-0.980469 0.984375,-0.980469 l 0.277344,-0.03516 c 5.675781,-0.617188 9.535156,-1.984375 12.949219,-2.832031 5.75,-1.421875 11.054687,-1.421875 14.207031,-1.007813 l 0.421875,0.05469 c 0.542969,0.0039 0.984375,0.441406 0.980469,0.984375 0,0.542968 -0.441407,0.984375 -0.984375,0.984375 m -0.273438,6.96875 -0.386719,-0.05859 c -3.820312,-0.96875 -9.867187,-0.648438 -14.539062,0.417969 -5.363281,1.222656 -8.125,2.355468 -14.09375,2.902343 l -0.203125,0 c -0.546875,0 -0.984375,-0.441406 -0.984375,-0.984375 0.0039,-0.542968 0.445312,-0.984375 0.984375,-0.984375 l 0.28125,-0.03125 C 61.867188,42.789063 66.011719,41.320313 69.441406,40.542969 75.265625,39.21875 81.34375,39.453125 84.125,40.128906 l 0.425781,0.05469 c 0.542969,0 0.984375,0.4375 0.980469,0.980469 0,0.546875 -0.441406,0.984375 -0.984375,0.984375 M 132.21875,6.367188 C 128.23828,6.730469 121.51563,4.644531 117.82422,3.265625 111.50781,0.914063 101.26172,-2.476563 95.824219,2.917969 90.414063,-2.496094 80.152344,0.847656 73.828125,3.175781 70.136719,4.539063 63.40625,6.601563 59.417969,6.222656 l -12.761719,46.25 c 2.800781,0.625 12.875,-0.128906 18.542969,-1.796875 9.503906,-2.796875 23.265625,-4.46875 30.523437,4.84375 7.292974,-9.285156 21.046874,-7.554687 30.542974,-4.722656 5.66015,1.695313 15.73437,2.488281 18.53515,1.871094 L 132.21875,6.367188"
         id="path4201" />
      <path
         style="fill:#006661;fill-opacity:1;fill-rule:nonzero;stroke:none"
         d="m 95.609375,62.46875 c 3.335938,0 5.558595,-0.886719 7.230465,-2.003906 l 43.99219,0.0078 -0.96875,-3.558593 -44.02734,-0.0039 c -0.9961,0.996094 -2.777346,1.996094 -6.11719,1.996094 l -0.109375,0 c -3.335937,0 -5.121094,-1 -6.121094,-1.996094 l -43.605468,0 -1.003907,3.554688 43.609375,0 c 1.667969,1.117187 3.894532,2.003906 7.230469,2.003906 l -0.109375,0"
         id="path4203" />
      <path
         style="fill:#006661;fill-opacity:1;fill-rule:nonzero;stroke:none"
         d="m 178.91016,118.58203 c -0.44532,0.24219 -0.79688,0.58985 -1.05079,1.03906 -0.2539,0.44922 -0.3789,0.92188 -0.3789,1.41016 0,0.48438 0.125,0.94922 0.375,1.39453 0.24609,0.44922 0.59375,0.79688 1.03906,1.04297 0.44922,0.24609 0.91016,0.37109 1.40234,0.37109 0.48438,0 0.94922,-0.125 1.39454,-0.37109 0.44531,-0.24609 0.79296,-0.59375 1.03906,-1.04297 0.25,-0.44531 0.37109,-0.91015 0.37109,-1.39453 0,-0.48828 -0.125,-0.96094 -0.375,-1.41016 -0.25,-0.44921 -0.60156,-0.79687 -1.05078,-1.03906 -0.44922,-0.24219 -0.91016,-0.36328 -1.37891,-0.36328 -0.47656,0 -0.9375,0.12109 -1.38671,0.36328 m 2.53515,0.40625 c 0.375,0.20313 0.66797,0.49219 0.875,0.86719 0.21094,0.37891 0.31641,0.76953 0.31641,1.17578 0,0.40625 -0.10156,0.79297 -0.3086,1.16406 -0.20703,0.3711 -0.5,0.66016 -0.86718,0.86719 -0.3711,0.20703 -0.76172,0.3125 -1.16407,0.3125 -0.40625,0 -0.79687,-0.10547 -1.16796,-0.3125 -0.3711,-0.20703 -0.66407,-0.49609 -0.8711,-0.86719 -0.20703,-0.37109 -0.30859,-0.75781 -0.30859,-1.16406 0,-0.40625 0.10156,-0.79687 0.3164,-1.17578 0.21094,-0.375 0.5,-0.66406 0.875,-0.86719 0.375,-0.20312 0.75782,-0.30469 1.15625,-0.30469 0.39063,0 0.77344,0.10157 1.14844,0.30469 m -1.89453,3.59766 0,-1.28516 0.28516,0 c 0.17187,0 0.30078,0.0312 0.39062,0.10156 0.12891,0.0937 0.30078,0.32813 0.50781,0.70313 l 0.26954,0.48047 0.59765,0 -0.37109,-0.59375 c -0.17188,-0.28125 -0.32422,-0.48047 -0.44531,-0.60156 -0.0625,-0.0586 -0.14844,-0.11329 -0.25782,-0.16016 0.26172,-0.0195 0.46875,-0.10938 0.625,-0.27344 0.16016,-0.16406 0.23828,-0.35547 0.23828,-0.57812 0,-0.15625 -0.0469,-0.30469 -0.14062,-0.44141 -0.0937,-0.14062 -0.22266,-0.23828 -0.37891,-0.29297 -0.15625,-0.0586 -0.41406,-0.0859 -0.77343,-0.0859 l -1.03516,0 0,3.02735 z m 0,-2.61719 0.55469,0 c 0.23828,0 0.40234,0.0195 0.48828,0.0508 0.0898,0.0391 0.15625,0.0898 0.20703,0.16016 0.0508,0.0703 0.0742,0.15234 0.0742,0.23828 0,0.14062 -0.0547,0.25391 -0.15625,0.33594 -0.10156,0.0859 -0.29688,0.125 -0.57813,0.125 l -0.58984,0 0,-0.91016"
         id="path4205" />
    </g>
  </g>
</svg>
