<?xml version="1.0" encoding="UTF-8" standalone="no"?>
<!-- Created with Inkscape (http://www.inkscape.org/) -->

<svg
   xmlns:dc="http://purl.org/dc/elements/1.1/"
   xmlns:cc="http://creativecommons.org/ns#"
   xmlns:rdf="http://www.w3.org/1999/02/22-rdf-syntax-ns#"
   xmlns:svg="http://www.w3.org/2000/svg"
   xmlns="http://www.w3.org/2000/svg"
   xmlns:sodipodi="http://sodipodi.sourceforge.net/DTD/sodipodi-0.dtd"
   xmlns:inkscape="http://www.inkscape.org/namespaces/inkscape"
   width="192.42871mm"
   height="70.616524mm"
   viewBox="0 0 681.83402 250.21603"
   id="svg2"
   version="1.1"
   inkscape:version="0.91 r13725"
   sodipodi:docname="same_direction.svg">
  <defs
     id="defs4">
    <marker
       inkscape:stockid="Arrow1Mstart"
       orient="auto"
       refY="0"
       refX="0"
       id="Arrow1Mstart"
       style="overflow:visible"
       inkscape:isstock="true">
      <path
         id="path5143"
         d="M 0,0 5,-5 -12.5,0 5,5 0,0 Z"
         style="fill:#800080;fill-opacity:1;fill-rule:evenodd;stroke:#800080;stroke-width:1pt;stroke-opacity:1"
         transform="matrix(0.4,0,0,0.4,4,0)"
         inkscape:connector-curvature="0" />
    </marker>
    <marker
       inkscape:stockid="Arrow1Lstart"
       orient="auto"
       refY="0"
       refX="0"
       id="Arrow1Lstart"
       style="overflow:visible"
       inkscape:isstock="true">
      <path
         id="path5137"
         d="M 0,0 5,-5 -12.5,0 5,5 0,0 Z"
         style="fill:#000000;fill-opacity:1;fill-rule:evenodd;stroke:#000000;stroke-width:1pt;stroke-opacity:1"
         transform="matrix(0.8,0,0,0.8,10,0)"
         inkscape:connector-curvature="0" />
    </marker>
    <filter
       inkscape:collect="always"
       style="color-interpolation-filters:sRGB"
       id="filter4763"
       x="-0.0054338165"
       width="1.0108676"
       y="-0.041151226"
       height="1.0823025">
      <feGaussianBlur
         inkscape:collect="always"
         stdDeviation="1.0042857"
         id="feGaussianBlur4765" />
    </filter>
    <marker
       inkscape:stockid="Arrow1Mstart"
       orient="auto"
       refY="0"
       refX="0"
       id="Arrow1Mstart-1"
       style="overflow:visible"
       inkscape:isstock="true">
      <path
         inkscape:connector-curvature="0"
         id="path5143-3"
         d="M 0,0 5,-5 -12.5,0 5,5 0,0 Z"
         style="fill:#ff0000;fill-opacity:1;fill-rule:evenodd;stroke:#ff0000;stroke-width:1pt;stroke-opacity:1"
         transform="matrix(0.4,0,0,0.4,4,0)" />
    </marker>
  </defs>
  <sodipodi:namedview
     id="base"
     pagecolor="#ffffff"
     bordercolor="#666666"
     borderopacity="1.0"
     inkscape:pageopacity="0.0"
     inkscape:pageshadow="2"
     inkscape:zoom="1.8387395"
     inkscape:cx="435.75305"
     inkscape:cy="86.521478"
     inkscape:document-units="px"
     inkscape:current-layer="layer1"
     showgrid="false"
     inkscape:window-width="2560"
     inkscape:window-height="1377"
     inkscape:window-x="1912"
     inkscape:window-y="-8"
     inkscape:window-maximized="1"
     fit-margin-top="0"
     fit-margin-left="0"
     fit-margin-right="0"
     fit-margin-bottom="0" />
  <metadata
     id="metadata7">
    <rdf:RDF>
      <cc:Work
         rdf:about="">
        <dc:format>image/svg+xml</dc:format>
        <dc:type
           rdf:resource="http://purl.org/dc/dcmitype/StillImage" />
        <dc:title></dc:title>
      </cc:Work>
    </rdf:RDF>
  </metadata>
  <g
     inkscape:label="Layer 1"
     inkscape:groupmode="layer"
     id="layer1"
     style="display:inline"
     transform="translate(-33.089211,-189.62231)">
    <rect
       style="opacity:0.94100001;fill:#2b0000;fill-opacity:1;stroke:#000000;stroke-width:1.86695397;stroke-miterlimit:4;stroke-dasharray:none;stroke-opacity:0.95238097"
       id="rect4136"
       width="678.48602"
       height="45.989227"
       x="35.503738"
       y="392.91562" />
    <circle
       style="opacity:0.94100001;fill:#ffffff;fill-opacity:1;stroke:#800080;stroke-width:5.34299994;stroke-miterlimit:4;stroke-dasharray:none;stroke-opacity:0.95238097"
       id="path4138"
       cx="157.42741"
       cy="371.42502"
       r="18.778395" />
    <circle
       style="opacity:0.94100001;fill:#ffffff;fill-opacity:1;stroke:#800080;stroke-width:5.34299994;stroke-miterlimit:4;stroke-dasharray:none;stroke-opacity:0.95238097"
       id="path4138-3"
       cx="315.72025"
       cy="370.98932"
       r="18.778395" />
    <rect
       style="opacity:0.94100001;fill:#fa8650;fill-opacity:0;stroke:#800080;stroke-width:5.34299994;stroke-miterlimit:4;stroke-dasharray:none;stroke-opacity:0.95238097"
       id="rect4155"
       width="338.57144"
       height="124.28571"
       x="68.5774"
       y="225.27501" />
    <rect
       style="opacity:1;fill:#ffffff;fill-opacity:1;stroke:#ffffff;stroke-width:5.34299994;stroke-miterlimit:4;stroke-dasharray:none;stroke-opacity:0.95238097;filter:url(#filter4763)"
       id="rect4157"
       width="443.57144"
       height="58.571419"
       x="35.499496"
       y="192.03259" />
    <path
       style="fill:none;fill-rule:evenodd;stroke:#0000ff;stroke-width:1px;stroke-linecap:butt;stroke-linejoin:miter;stroke-opacity:1"
       d="m 70.70174,268.07446 c 1.15369,0 2.30737,0 3.46105,0 0.12819,0 0.25637,0 0.38456,0 0.12819,0 0.26991,-0.0573 0.38456,0 0.16215,0.0811 0.21258,0.32724 0.38456,0.38456 0.24322,0.0811 0.52591,-0.0811 0.76912,0 0.17198,0.0573 0.23373,0.28401 0.38456,0.38457 1.67959,1.11972 -0.12676,-0.17044 1.53825,0.38456 0.17198,0.0573 0.22241,0.30348 0.38456,0.38456 0.15247,0.0762 1.07506,-0.0786 1.15368,0 0.0906,0.0906 -0.0906,0.29392 0,0.38456 0.0155,0.0155 1.39702,0 1.53824,0 0.76912,0 1.53824,0 2.30736,0 0.25638,0 0.53982,-0.11466 0.76913,0 0.11465,0.0573 -0.0907,0.29392 0,0.38456 0.0925,0.0925 1.4457,-0.0925 1.53824,0 0.0906,0.0906 -0.0906,0.29392 0,0.38456 0.13499,0.13499 1.65717,-0.13282 1.9228,0 0.16215,0.0811 0.22242,0.30349 0.38456,0.38456 0.22931,0.11465 0.58784,-0.18128 0.76912,0 0.0906,0.0906 -0.11465,0.32723 0,0.38456 0.22931,0.11465 0.52591,-0.0811 0.76912,0 0.17198,0.0573 0.23373,0.284 0.38456,0.38456 0.2385,0.159 0.53063,0.22556 0.76913,0.38456 0.15083,0.10056 0.22241,0.30349 0.38456,0.38456 0.11465,0.0573 0.25637,0 0.38456,0 0.25637,0 0.5259,-0.0811 0.76912,0 0.17198,0.0573 0.22241,0.30349 0.38456,0.38456 0.11465,0.0573 0.26991,-0.0573 0.38456,0 0.16214,0.0811 0.22241,0.30349 0.38456,0.38456 0.2417,0.12085 1.29654,-0.12085 1.53824,0 0.16215,0.0811 0.22242,0.30349 0.38456,0.38456 0.22931,0.11466 0.53982,-0.11465 0.76912,0 0.16215,0.0811 0.22242,0.30349 0.38456,0.38456 0.22931,0.11466 0.53982,-0.11465 0.76913,0 0.16214,0.0811 0.22241,0.30349 0.38456,0.38456 0.2293,0.11466 0.58783,-0.18128 0.76912,0 0.0906,0.0907 -0.0906,0.29392 0,0.38456 0.0906,0.0906 0.25637,0 0.38456,0 0.12818,0 0.25637,0 0.38456,0 0.37259,0 2.07806,-0.0764 2.30736,0 0.27193,0.0906 0.4972,0.29392 0.76912,0.38457 0.21697,0.0723 0.90099,0 1.15369,0 0.64093,0 1.28186,0 1.9228,0 0.20109,0 1.43712,-0.0506 1.53824,0 0.16215,0.0811 0.22242,0.30348 0.38456,0.38456 0.11466,0.0573 0.25638,0 0.38456,0 0.12819,0 0.25638,0 0.38456,0 0.64094,0 1.28187,0 1.92281,0 0.12818,0 0.25637,0 0.38456,0 0.12818,0 0.2699,-0.0573 0.38456,0 0.16214,0.0811 0.22241,0.30348 0.38456,0.38456 0.13907,0.0695 1.65532,0 1.9228,0 1.66643,0 3.33286,0 4.99929,0 2.05099,0 4.10198,0 6.15297,0 0.64093,0 1.28187,0 1.9228,0 0.12819,0 0.25637,0 0.38456,0 0.12819,0 0.26991,0.0573 0.38456,0 0.16215,-0.0811 0.21258,-0.32724 0.38456,-0.38456 0.26162,-0.0872 1.7189,0.10195 1.92281,0 0.16214,-0.0811 0.22241,-0.30349 0.38456,-0.38456 0.11465,-0.0573 0.25637,0 0.38456,0 0.38456,0 0.76912,0 1.15368,0 0.25637,0 0.5204,0.0622 0.76912,0 0.27808,-0.0695 0.4972,-0.29392 0.76912,-0.38457 0.32378,-0.10792 1.69385,0.11448 1.9228,0 0.16215,-0.0811 0.22242,-0.30348 0.38456,-0.38456 0.24171,-0.12085 1.29654,0.12086 1.53825,0 0.16214,-0.0811 0.22241,-0.30348 0.38456,-0.38456 0.30765,-0.15382 0.84603,0.15383 1.15368,0 0.16214,-0.0811 0.22242,-0.30348 0.38456,-0.38456 0.30765,-0.15382 0.84603,0.15383 1.15368,0 0.16215,-0.0811 0.22242,-0.30349 0.38456,-0.38456 0.30765,-0.15382 0.84604,0.15383 1.15368,0 0.16215,-0.0811 0.22242,-0.30349 0.38457,-0.38456 0.2417,-0.12085 1.29653,0.12085 1.53824,0 0.16214,-0.0811 0.22241,-0.30349 0.38456,-0.38456 0.25181,-0.12591 1.58153,0.11376 1.9228,0 0.27193,-0.0906 0.4972,-0.29392 0.76912,-0.38456 0.12161,-0.0405 0.26295,0.0405 0.38456,0 0.27193,-0.0906 0.4972,-0.29392 0.76912,-0.38456 0.24322,-0.0811 0.53982,0.11465 0.76913,0 0.16214,-0.0811 0.22241,-0.30349 0.38456,-0.38456 0.25181,-0.12591 1.58153,0.11376 1.9228,0 0.27192,-0.0906 0.49719,-0.29392 0.76912,-0.38456 0.12161,-0.0405 0.25637,0 0.38456,0 0.27432,0 1.63892,0.071 1.9228,0 0.39326,-0.0983 0.76043,-0.28625 1.15369,-0.38456 0.37307,-0.0933 0.7806,0.0933 1.15368,0 0.27807,-0.0695 0.49104,-0.31504 0.76912,-0.38456 0.24872,-0.0622 0.5259,0.0811 0.76912,0 0.17198,-0.0573 0.2068,-0.34901 0.38456,-0.38456 0.50279,-0.10056 1.03247,0.0843 1.53824,0 0.28274,-0.0471 0.48639,-0.33744 0.76912,-0.38456 0.50578,-0.0843 1.03546,0.10055 1.53825,0 0.17776,-0.0356 0.21258,-0.32724 0.38456,-0.38456 0.24321,-0.0811 0.51274,0 0.76912,0 0.38456,0 0.77659,0.0754 1.15368,0 0.28107,-0.0562 0.48639,-0.33744 0.76912,-0.38456 0.50577,-0.0843 1.03065,0.0725 1.53824,0 0.40129,-0.0573 0.76043,-0.28625 1.15369,-0.38457 0.37307,-0.0933 0.77658,0.0754 1.15368,0 0.39749,-0.0795 0.75383,-0.31791 1.15368,-0.38456 0.63221,-0.10537 1.28187,0 1.9228,0 0.25638,0 0.51275,0 0.76912,0 0.12819,0 0.26991,0.0573 0.38456,0 0.16215,-0.0811 0.20869,-0.34059 0.38456,-0.38456 0.49744,-0.12436 1.0255,0 1.53825,0 1.02549,0 2.05099,0 3.07648,0 0.32559,0 1.3315,0.0689 1.53824,0 0.17199,-0.0573 0.22242,-0.30348 0.38456,-0.38456 0.11007,-0.055 1.71737,0 1.92281,0 1.41005,0 2.82011,0 4.23016,0 0.64094,0 1.28187,0 1.92281,0 0.12818,0 0.25637,0 0.38456,0 0.12819,0 0.2699,-0.0573 0.38456,0 0.16214,0.0811 0.22241,0.30349 0.38456,0.38456 0.25182,0.12591 1.58153,-0.11375 1.9228,0 0.27193,0.0906 0.4972,0.29392 0.76912,0.38456 0.26452,0.0882 0.92679,-0.11345 1.15369,0 0.16214,0.0811 0.22241,0.30349 0.38456,0.38456 0.2293,0.11466 0.53981,-0.11465 0.76912,0 0.16214,0.0811 0.22241,0.30349 0.38456,0.38457 0.15247,0.0762 1.07506,-0.0786 1.15368,0 0.0906,0.0906 -0.0906,0.29391 0,0.38456 0.10522,0.10522 1.32962,-0.10431 1.53824,0 0.16215,0.0811 0.22242,0.30348 0.38456,0.38456 0.22931,0.11465 0.52591,-0.0811 0.76912,0 0.27193,0.0906 0.4972,0.29392 0.76913,0.38456 0.14964,0.0499 1.094,-0.0597 1.15368,0 0.0906,0.0906 -0.0906,0.29392 0,0.38456 0.13499,0.13499 1.65717,-0.13282 1.9228,0 0.16214,0.0811 0.22242,0.30349 0.38456,0.38456 0.30765,0.15382 0.84603,-0.15383 1.15368,0 0.16215,0.0811 0.22242,0.30349 0.38456,0.38456 0.11466,0.0573 0.26991,-0.0573 0.38456,0 0.16215,0.0811 0.22242,0.30349 0.38456,0.38456 0.30765,0.15382 0.84604,-0.15382 1.15369,0 0.16214,0.0811 0.21258,0.32723 0.38456,0.38456 0.24321,0.0811 0.51274,0 0.76912,0 0.12818,0 0.2699,-0.0573 0.38456,0 0.16214,0.0811 0.21258,0.32723 0.38456,0.38456 1.75063,0 0.022,-0.18128 1.15368,0.38456 0.30765,0.15383 0.84603,-0.15382 1.15368,0 0.16215,0.0811 0.22242,0.30349 0.38456,0.38456 0.11466,0.0573 0.26991,-0.0573 0.38456,0 0.16215,0.0811 0.22242,0.30349 0.38456,0.38456 0.30765,0.15383 0.84604,-0.15382 1.15369,0 0.16214,0.0811 0.22241,0.30349 0.38456,0.38456 0.2293,0.11466 0.5259,-0.0811 0.76912,0 0.27192,0.0906 0.49104,0.31504 0.76912,0.38456 0.33889,0.0847 2.07986,-0.11375 2.30736,0 0.16215,0.0811 0.22242,0.30349 0.38456,0.38456 0.30765,0.15383 0.84604,-0.15382 1.15369,0 0.16214,0.0811 0.22241,0.30349 0.38456,0.38456 0.11465,0.0573 0.25637,0 0.38456,0 0.21486,0 1.69586,-0.0756 1.9228,0 0.27192,0.0906 0.4972,0.29392 0.76912,0.38457 0.24322,0.0811 0.51275,0 0.76912,0 0.38456,0 0.76912,0 1.15368,0 0.12819,0 0.26991,-0.0573 0.38456,0 0.16215,0.0811 0.20869,0.34059 0.38456,0.38456 0.21735,0.0543 1.62445,-0.0995 1.92281,0 0.27192,0.0906 0.49104,0.31504 0.76912,0.38456 0.29304,0.0733 2.29404,0 2.69192,0 0.12819,0 0.26991,-0.0573 0.38456,0 0.16215,0.0811 0.22242,0.30348 0.38456,0.38456 0.16424,0.0821 1.77079,0 1.92281,0 1.02549,0 2.05099,0 3.07648,0 0.2527,0 0.93672,-0.0723 1.15368,0 0.27193,0.0906 0.4972,0.29392 0.76913,0.38456 0.2293,0.0764 1.93477,0 2.30736,0 0.25637,0 0.51275,0 0.76912,0 0.12819,0 0.26991,-0.0573 0.38456,0 1.31297,0.65648 -1.18934,0.38456 1.53824,0.38456 0.64094,0 1.28187,0 1.92281,0 0.25637,0 0.5259,-0.0811 0.76912,0 0.17198,0.0573 0.20679,0.34901 0.38456,0.38456 0.62849,0.1257 1.28187,0 1.9228,0 1.66643,0 3.33286,0 4.99929,0 0.76912,0 1.53824,0 2.30736,0 0.17319,0 1.03665,0.0585 1.15368,0 0.16215,-0.0811 0.22242,-0.30349 0.38457,-0.38456 0.2417,-0.12085 1.29653,0.12085 1.53824,0 0.16214,-0.0811 0.22241,-0.30349 0.38456,-0.38456 0.21162,-0.10581 2.00671,0.10021 2.30736,0 0.17198,-0.0573 0.22242,-0.30349 0.38456,-0.38456 0.20335,-0.10168 1.35089,0.0468 1.53824,0 0.27808,-0.0695 0.4972,-0.29392 0.76913,-0.38456 0.24321,-0.0811 0.5259,0.0811 0.76912,0 0.27192,-0.0906 0.49719,-0.29392 0.76912,-0.38456 0.40864,-0.13622 1.1296,0.13621 1.53824,0 0.17198,-0.0573 0.22242,-0.30349 0.38456,-0.38456 0.30765,-0.15383 0.84603,0.15382 1.15368,0 0.16215,-0.0811 0.22242,-0.30349 0.38456,-0.38457 0.24171,-0.12085 1.29654,0.12086 1.53825,0 0.16214,-0.0811 0.22241,-0.30348 0.38456,-0.38456 0.30765,-0.15382 0.84603,0.15383 1.15368,0 0.16214,-0.0811 0.22241,-0.30348 0.38456,-0.38456 0.22931,-0.11465 0.53981,0.11466 0.76912,0 0.16215,-0.0811 0.22242,-0.30348 0.38456,-0.38456 0.20862,-0.10431 1.43302,0.10523 1.53824,0 0.0906,-0.0906 -0.0906,-0.29392 0,-0.38456 0.18129,-0.18128 0.53982,0.11466 0.76912,0 0.16215,-0.0811 0.22242,-0.30349 0.38457,-0.38456 0.23839,-0.11919 1.68678,0.11801 1.9228,0 0.11465,-0.0573 -0.0906,-0.29392 0,-0.38456 0.0786,-0.0786 1.0012,0.0762 1.15368,0 0.16215,-0.0811 0.22242,-0.30349 0.38456,-0.38456 0.24171,-0.12085 1.29654,0.12085 1.53824,0 0.16215,-0.0811 0.22242,-0.30349 0.38456,-0.38456 0.15248,-0.0762 1.07507,0.0786 1.15369,0 0.0906,-0.0906 -0.0906,-0.29392 0,-0.38456 0.10522,-0.10522 1.32962,0.10431 1.53824,0 0.16214,-0.0811 0.22241,-0.30349 0.38456,-0.38456 0.11465,-0.0573 0.26295,0.0405 0.38456,0 0.27192,-0.0906 0.49719,-0.29392 0.76912,-0.38456 0.14964,-0.0499 1.094,0.0597 1.15368,0 0.0906,-0.0906 -0.0906,-0.29392 0,-0.38456 0.0906,-0.0906 0.25638,0 0.38456,0 0.26748,0 1.78374,0.0695 1.92281,0 0.16214,-0.0811 0.22241,-0.30349 0.38456,-0.38456 0.2417,-0.12086 1.29653,0.12085 1.53824,0 0.16214,-0.0811 0.21258,-0.32724 0.38456,-0.38456 0.17589,-0.0586 1.36712,0.0856 1.53824,0 0.16215,-0.0811 0.22242,-0.30349 0.38456,-0.38456 0.2269,-0.11345 0.88917,0.0882 1.15368,0 0.27193,-0.0907 0.4972,-0.29392 0.76913,-0.38456 0.26451,-0.0882 0.92678,0.11344 1.15368,0 0.16214,-0.0811 0.22241,-0.30349 0.38456,-0.38457 0.13407,-0.067 2.02506,0 2.30736,0 0.12819,0 0.29392,0.0906 0.38456,0 0.0906,-0.0906 -0.0906,-0.29391 0,-0.38456 0.12468,-0.12467 1.67873,0.12204 1.92281,0 0.16214,-0.0811 0.22241,-0.30348 0.38456,-0.38456 0.11703,-0.0585 0.98049,0 1.15368,0 1.15368,0 2.30736,0 3.46104,0 2.69193,0 5.38385,0 8.07578,0 3.07648,0 6.15297,0 9.22945,0 0.89731,0 1.79462,0 2.69192,0 0.2527,0 0.93672,-0.0723 1.15369,0 0.27192,0.0906 0.49719,0.29392 0.76912,0.38456 0.2293,0.0764 1.93477,0 2.30736,0 0.12819,0 0.26991,-0.0573 0.38456,0 0.16215,0.0811 0.22242,0.30349 0.38456,0.38456 0.24171,0.12086 1.29654,-0.12085 1.53824,0 0.11466,0.0573 -0.0906,0.29392 0,0.38457 0.18129,0.18128 0.53982,-0.11466 0.76913,0 0.16214,0.0811 0.22241,0.30348 0.38456,0.38456 0.15247,0.0762 1.07506,-0.0786 1.15368,0 0.0906,0.0906 -0.0906,0.29391 0,0.38456 0.18128,0.18128 0.53981,-0.11466 0.76912,0 0.16214,0.0811 0.22242,0.30348 0.38456,0.38456 0.11465,0.0573 0.26991,-0.0573 0.38456,0 0.16215,0.0811 0.22242,0.30349 0.38456,0.38456 0.22931,0.11465 0.53981,-0.11466 0.76912,0 0.16215,0.0811 0.22242,0.30349 0.38456,0.38456 0.11466,0.0573 0.26991,-0.0573 0.38456,0 0.16215,0.0811 0.22242,0.30349 0.38456,0.38456 0.22931,0.11465 0.58784,-0.18128 0.76913,0 0.0906,0.0906 -0.0906,0.29392 0,0.38456 0.18128,0.18128 0.58783,-0.18128 0.76912,0 0.0906,0.0906 -0.0906,0.29392 0,0.38456 0.0786,0.0786 1.0012,-0.0762 1.15368,0 0.16214,0.0811 0.22241,0.30349 0.38456,0.38456 0.11465,0.0573 0.26991,-0.0573 0.38456,0 0.16214,0.0811 0.22242,0.30349 0.38456,0.38456 0.11465,0.0573 0.26991,-0.0573 0.38456,0 0.16215,0.0811 0.22242,0.30349 0.38456,0.38456 0.22931,0.11466 0.53982,-0.11465 0.76912,0 0.16215,0.0811 0.22242,0.30349 0.38456,0.38456 0.22931,0.11466 0.53982,-0.11465 0.76912,0 0.16215,0.0811 0.22242,0.30349 0.38457,0.38456 0.11465,0.0573 0.2699,-0.0573 0.38456,0 0.16214,0.0811 0.22241,0.30349 0.38456,0.38456 0.2293,0.11466 0.53981,-0.11465 0.76912,0 0.16214,0.0811 0.22241,0.30349 0.38456,0.38456 0.11465,0.0573 0.29392,-0.0906 0.38456,0 0.0906,0.0907 -0.11466,0.32724 0,0.38456 0.22931,0.11466 0.5259,-0.0811 0.76912,0 0.17198,0.0573 0.22242,0.30349 0.38456,0.38457 0.34396,0.17198 0.80972,-0.17199 1.15368,0 0.11466,0.0573 -0.0906,0.29391 0,0.38456 0.0786,0.0786 1.00121,-0.0762 1.15368,0 0.16215,0.0811 0.22242,0.30348 0.38456,0.38456 0.2269,0.11345 0.88917,-0.0882 1.15369,0 0.27192,0.0906 0.49719,0.29392 0.76912,0.38456 0.12161,0.0405 0.25637,0 0.38456,0 0.25637,0.12818 0.49719,0.29392 0.76912,0.38456 0.12161,0.0405 0.25637,0 0.38456,0 0.066,0 2.16635,-0.047 2.30736,0 0.17198,0.0573 0.22242,0.30349 0.38456,0.38456 0.11466,0.0573 0.25638,0 0.38457,0 0.25637,0 0.5259,-0.0811 0.76912,0 0.17198,0.0573 0.22241,0.30349 0.38456,0.38456 0.11465,0.0573 0.25637,0 0.38456,0 0.25637,0 0.5259,-0.0811 0.76912,0 0.17198,0.0573 0.22241,0.30349 0.38456,0.38456 0.13907,0.0695 1.65532,0 1.9228,0 0.12819,0 0.29392,-0.0906 0.38456,0 0.0906,0.0906 -0.11465,0.32723 0,0.38456 0.22931,0.11465 0.51275,0 0.76912,0 0.76913,0 1.53825,0 2.30737,0 0.17319,0 1.03664,-0.0585 1.15368,0 0.16214,0.0811 0.22242,0.30349 0.38456,0.38456 0.12255,0.0613 1.57911,0 1.9228,0 1.53825,0 3.07649,0 4.61473,0 2.69192,0 5.38385,0 8.07577,0 0.76912,0 1.53825,0 2.30737,0 0.17319,0 1.03664,0.0585 1.15368,0 0.16214,-0.0811 0.22241,-0.30349 0.38456,-0.38456 0.24261,-0.1213 1.68019,0.1213 1.9228,0 0.16215,-0.0811 0.22242,-0.30349 0.38456,-0.38456 0.40906,-0.20453 0.36007,0.20453 0.76912,0 0.16215,-0.0811 0.22242,-0.30349 0.38456,-0.38456 0.22931,-0.11465 0.53982,0.11465 0.76913,0 0.16214,-0.0811 0.22241,-0.30349 0.38456,-0.38456 0.15247,-0.0762 1.07506,0.0786 1.15368,0 0.0906,-0.0906 -0.0906,-0.29392 0,-0.38456 0.18128,-0.18129 0.53981,0.11465 0.76912,0 0.16214,-0.0811 0.22241,-0.30349 0.38456,-0.38456 0.22931,-0.11466 0.58784,0.18128 0.76912,0 0.0906,-0.0906 -0.0906,-0.29392 0,-0.38456 0.18128,-0.18129 0.5259,0.0811 0.76912,0 0.27193,-0.0906 0.4972,-0.29392 0.76912,-0.38456 0.12161,-0.0405 0.26991,0.0573 0.38456,0 0.16215,-0.0811 0.22242,-0.30349 0.38456,-0.38456 0.4096,-0.2048 0.35953,0.2048 0.76913,0 0.16214,-0.0811 0.22241,-0.30349 0.38456,-0.38457 0.11465,-0.0573 0.29392,0.0906 0.38456,0 0.0906,-0.0906 -0.0906,-0.29391 0,-0.38456 0.18128,-0.18128 0.58783,0.18129 0.76912,0 0.0906,-0.0906 -0.0906,-0.29391 0,-0.38456 0.18128,-0.18128 0.58784,0.18129 0.76912,0 0.0906,-0.0906 -0.0906,-0.29392 0,-0.38456 0.18128,-0.18128 0.58784,0.18129 0.76912,0 0.0906,-0.0906 -0.0906,-0.29392 0,-0.38456 0.18128,-0.18128 0.58784,0.18129 0.76912,0 0.0906,-0.0906 -0.0906,-0.29392 0,-0.38456 0.0906,-0.0906 0.26991,0.0573 0.38456,0 0.16215,-0.0811 0.22242,-0.30349 0.38456,-0.38456 0.11466,-0.0573 0.29392,0.0906 0.38456,0 0.0906,-0.0906 -0.0906,-0.29392 0,-0.38456 0.18129,-0.18128 0.58784,0.18128 0.76913,0 0.0906,-0.0906 -0.0906,-0.29392 0,-0.38456 0.18128,-0.18128 0.58783,0.18128 0.76912,0 0.0906,-0.0906 -0.0907,-0.29392 0,-0.38456 0.18128,-0.18128 0.58783,0.18128 0.76912,0 0.0906,-0.0906 -0.0906,-0.29392 0,-0.38456 0.0906,-0.0906 0.29392,0.0906 0.38456,0 0.0906,-0.0906 -0.0906,-0.29392 0,-0.38456 0.0906,-0.0906 0.38456,-0.12819 0.38456,0 0,0.12818 -0.38456,0.12818 -0.38456,0 0,-0.18129 0.22241,-0.30349 0.38456,-0.38456 0.15247,-0.0762 1.07506,0.0786 1.15368,0 0.0906,-0.0906 -0.0906,-0.29392 0,-0.38456 0.0906,-0.0906 0.25637,0 0.38456,0 0.12819,0 0.25637,0 0.38456,0"
       id="path5127"
       inkscape:connector-curvature="0" />
    <path
       style="opacity:1;fill:#afc6e9;fill-opacity:1;stroke:#0000ff;stroke-width:2.05470729;stroke-miterlimit:4;stroke-dasharray:none;stroke-opacity:0.95238097"
       d="m 71.5076,307.61287 0,-39.0329 1.44211,0.002 c 0.79315,10e-4 1.96126,0.27641 2.59578,0.61135 1.47797,0.78017 2.07639,0.92003 5.57613,1.30326 4.16291,0.45585 6.89355,1.06855 8.24192,1.84931 0.6489,0.37574 1.95855,0.91095 2.91034,1.18935 0.95178,0.27841 2.68231,0.82176 3.8456,1.20745 1.25665,0.41663 4.45628,0.87727 7.88349,1.13493 3.17263,0.23853 6.02799,0.5227 6.34525,0.63149 0.31727,0.10879 4.08962,0.18121 8.38301,0.16093 9.69934,-0.0458 16.65634,-1.03804 28.53481,-4.06971 1.1633,-0.2969 3.1534,-0.63829 4.42245,-0.75864 1.26905,-0.12034 3.4322,-0.4788 4.80701,-0.79655 8.68087,-2.00641 23.77067,-3.54063 30.4062,-3.09147 1.81208,0.12266 4.40786,0.55364 5.76841,0.95773 1.36055,0.4041 3.77162,1.036 5.35793,1.40422 3.18563,0.73946 6.67499,1.6959 11.34669,3.11014 3.34555,1.01278 5.01223,1.33446 12.88063,2.48607 6.7171,0.9831 7.7574,1.08624 13.18897,1.30763 2.49814,0.10183 4.73499,0.30437 4.97078,0.4501 1.1329,0.70017 14.13142,0.64359 18.37351,-0.08 5.14787,-0.87806 10.65926,-2.05205 14.42102,-3.07182 9.50965,-2.57798 19.86259,-4.8525 27.11152,-5.95633 1.90382,-0.28991 7.32864,-0.38693 15.95927,-0.28543 l 13.07506,0.15376 3.07648,1.06839 c 1.69207,0.58761 4.02828,1.47202 5.19157,1.96535 6.27951,2.66304 12.05652,4.75817 14.6133,5.29978 1.58632,0.33602 4.35515,0.9225 6.15297,1.30327 1.79783,0.38077 3.41678,0.64558 3.59767,0.58847 0.18089,-0.0571 0.527,0.0509 0.76912,0.24007 0.24212,0.18915 6.06442,0.32356 12.93844,0.2987 13.42034,-0.0485 13.49888,-0.0585 18.70931,-2.3825 0.66649,-0.29727 1.36126,-0.54049 1.54394,-0.54049 0.35275,0 1.89928,-0.78373 5.80073,-2.93965 l 2.40351,-1.32816 0,37.3212 0,37.3212 -166.32246,0 -166.32247,0 0,-39.0329 z"
       id="path5129"
       inkscape:connector-curvature="0" />
    <path
       style="fill:#800080;fill-rule:evenodd;stroke:#800080;stroke-width:2.5999999;stroke-linecap:butt;stroke-linejoin:miter;stroke-miterlimit:4;stroke-dasharray:none;stroke-opacity:1;marker-start:url(#Arrow1Mstart)"
       d="m 453.33954,376.13599 -71.52827,0 z"
       id="path5461"
       inkscape:connector-curvature="0" />
    <path
       style="display:inline;fill:#ff0000;fill-rule:evenodd;stroke:#ff0000;stroke-width:3.38376665;stroke-linecap:butt;stroke-linejoin:miter;stroke-miterlimit:4;stroke-dasharray:none;stroke-opacity:1;marker-start:url(#Arrow1Mstart-1)"
       d="m 210.13735,329.60416 -121.15235,0 z"
       id="path5461-9"
       inkscape:connector-curvature="0" />
    <ellipse
       style="opacity:1;fill:#ff0000;fill-opacity:1;stroke:#ff0000;stroke-width:2.5999999;stroke-linecap:butt;stroke-miterlimit:4;stroke-dasharray:none;stroke-opacity:0.95238097"
       id="path5968"
       cx="94.352219"
       cy="302.87723"
       rx="5.9606895"
       ry="5.1915684" />
    <text
       xml:space="preserve"
       style="font-style:normal;font-weight:normal;font-size:15px;line-height:125%;font-family:sans-serif;letter-spacing:0px;word-spacing:0px;fill:#000000;fill-opacity:1;stroke:none;stroke-width:1px;stroke-linecap:butt;stroke-linejoin:miter;stroke-opacity:1"
       x="184.20453"
       y="347.84717"
       id="text5976"
       sodipodi:linespacing="125%"><tspan
         sodipodi:role="line"
         id="tspan5978"
         x="184.20453"
         y="347.84717" /></text>
    <text
       xml:space="preserve"
       style="font-style:normal;font-weight:normal;font-size:10.8082552px;line-height:125%;font-family:sans-serif;letter-spacing:0px;word-spacing:0px;fill:#000000;fill-opacity:1;stroke:none;stroke-width:1px;stroke-linecap:butt;stroke-linejoin:miter;stroke-opacity:1"
       x="116.2025"
       y="323.1366"
       id="text5980"
       sodipodi:linespacing="125%"><tspan
         sodipodi:role="line"
         id="tspan5982"
         x="116.2025"
         y="323.1366">v = 10 m/s</tspan></text>
    <text
       xml:space="preserve"
       style="font-style:normal;font-weight:normal;font-size:10.8082552px;line-height:125%;font-family:sans-serif;letter-spacing:0px;word-spacing:0px;display:inline;fill:#000000;fill-opacity:1;stroke:none;stroke-width:1px;stroke-linecap:butt;stroke-linejoin:miter;stroke-opacity:1"
       x="379.40698"
       y="372.04544"
       id="text5980-3"
       sodipodi:linespacing="125%"><tspan
         sodipodi:role="line"
         id="tspan5982-8"
         x="379.40698"
         y="372.04544">u = 2 m/s</tspan></text>
  </g>
</svg>
